<svg width="1920" height="640" viewBox="0 0 1920 640" fill="none" xmlns="http://www.w3.org/2000/svg">
  <defs>
    <linearGradient id="bg" x1="102" y1="62" x2="1710" y2="590" gradientUnits="userSpaceOnUse">
      <stop stop-color="#FFF7EC"/>
      <stop offset="0.5" stop-color="#F2FBFF"/>
      <stop offset="1" stop-color="#FFF0E0"/>
    </linearGradient>
    <linearGradient id="beam" x1="1390" y1="130" x2="980" y2="490" gradientUnits="userSpaceOnUse">
      <stop stop-color="#12BFA8"/>
      <stop offset="0.5" stop-color="#3E6FFF"/>
      <stop offset="1" stop-color="#FF8A4C"/>
    </linearGradient>
    <radialGradient id="glow" cx="0" cy="0" r="1" gradientUnits="userSpaceOnUse" gradientTransform="translate(1364 216) rotate(133.79) scale(348 248)">
      <stop stop-color="#12BFA8" stop-opacity="0.28"/>
      <stop offset="1" stop-color="#12BFA8" stop-opacity="0"/>
    </radialGradient>
    <filter id="blur">
      <feGaussianBlur stdDeviation="36"/>
    </filter>
  </defs>

  <rect width="1920" height="640" rx="34" fill="url(#bg)"/>

  <g opacity="0.12">
    <path d="M0 130H1920" stroke="#3E6FFF"/>
    <path d="M0 230H1920" stroke="#3E6FFF"/>
    <path d="M0 330H1920" stroke="#3E6FFF"/>
    <path d="M0 430H1920" stroke="#3E6FFF"/>
    <path d="M0 530H1920" stroke="#3E6FFF"/>
    <path d="M210 0V640" stroke="#3E6FFF"/>
    <path d="M420 0V640" stroke="#3E6FFF"/>
    <path d="M630 0V640" stroke="#3E6FFF"/>
    <path d="M840 0V640" stroke="#3E6FFF"/>
    <path d="M1050 0V640" stroke="#3E6FFF"/>
    <path d="M1260 0V640" stroke="#3E6FFF"/>
    <path d="M1470 0V640" stroke="#3E6FFF"/>
    <path d="M1680 0V640" stroke="#3E6FFF"/>
  </g>

  <ellipse cx="1360" cy="212" rx="260" ry="172" fill="url(#glow)" filter="url(#blur)"/>

  <g opacity="0.9">
    <path d="M1244 178C1318 144 1436 145 1510 178C1584 211 1584 265 1510 298C1436 331 1318 332 1244 298C1170 265 1170 211 1244 178Z" stroke="#12BFA8" stroke-opacity="0.52"/>
    <path d="M1244 178C1318 144 1436 145 1510 178C1584 211 1584 265 1510 298C1436 331 1318 332 1244 298C1170 265 1170 211 1244 178Z" stroke="url(#beam)" stroke-opacity="0.2" stroke-width="3"/>
    <animateTransform attributeName="transform" attributeType="XML" type="rotate" from="0 1376 238" to="360 1376 238" dur="18s" repeatCount="indefinite"/>
  </g>

  <g opacity="0.75">
    <path d="M1278 130C1338 98 1434 98 1494 130C1554 161 1554 212 1494 244C1434 276 1338 276 1278 244C1218 212 1218 161 1278 130Z" stroke="#3E6FFF" stroke-opacity="0.42"/>
    <animateTransform attributeName="transform" attributeType="XML" type="rotate" from="360 1386 186" to="0 1386 186" dur="22s" repeatCount="indefinite"/>
  </g>

  <g transform="translate(1284 120)">
    <path d="M0 80L146 0L286 80L140 160L0 80Z" fill="#FFFFFF" fill-opacity="0.04"/>
    <path d="M0 80L146 0L286 80L140 160L0 80Z" fill="#FFFFFF" fill-opacity="0.84" stroke="#12BFA8" stroke-opacity="0.35"/>
    <path d="M0 80V240L140 320V160L0 80Z" fill="#E9F5FF" fill-opacity="0.92" stroke="#3E6FFF" stroke-opacity="0.25"/>
    <path d="M286 80V240L140 320V160L286 80Z" fill="#F4FBFF" fill-opacity="0.95" stroke="#12BFA8" stroke-opacity="0.25"/>
    <animateTransform attributeName="transform" attributeType="XML" type="translate" values="1284 120;1284 108;1284 120" dur="7.8s" repeatCount="indefinite"/>
  </g>

  <g transform="translate(120 248)">
    <text
      x="0"
      y="0"
      fill="#10213F"
      font-size="84"
      font-family="Space Grotesk, Arial, Apple Color Emoji, Segoe UI Emoji, sans-serif"
      font-weight="700"
      letter-spacing="-2"
    >
      Hi there! Happy coding &amp; enjoy your day 😊
    </text>
  </g>

  <g opacity="0.9">
    <circle cx="1604" cy="94" r="3" fill="#10213F">
      <animate attributeName="opacity" values="0.2;1;0.2" dur="3s" repeatCount="indefinite"/>
    </circle>
    <circle cx="1738" cy="190" r="2" fill="#12BFA8">
      <animate attributeName="opacity" values="0.1;1;0.1" dur="4.2s" repeatCount="indefinite"/>
    </circle>
    <circle cx="1512" cy="404" r="2.8" fill="#3E6FFF">
      <animate attributeName="opacity" values="0.2;1;0.2" dur="2.7s" repeatCount="indefinite"/>
    </circle>
    <circle cx="1716" cy="500" r="2.3" fill="#FF8A4C">
      <animate attributeName="opacity" values="0.2;1;0.2" dur="3.4s" repeatCount="indefinite"/>
    </circle>
  </g>
</svg>
