<svg width="1920" height="360" viewBox="0 0 1920 360" fill="none" xmlns="http://www.w3.org/2000/svg">
  <defs>
    <linearGradient id="bg" x1="96" y1="48" x2="1724" y2="320" gradientUnits="userSpaceOnUse">
      <stop stop-color="#FFF7EC"/>
      <stop offset="0.5" stop-color="#F2FBFF"/>
      <stop offset="1" stop-color="#FFF0E0"/>
    </linearGradient>
    <radialGradient id="glowA" cx="0" cy="0" r="1" gradientUnits="userSpaceOnUse" gradientTransform="translate(360 104) rotate(22.5) scale(420 180)">
      <stop stop-color="#12BFA8" stop-opacity="0.24"/>
      <stop offset="1" stop-color="#12BFA8" stop-opacity="0"/>
    </radialGradient>
    <radialGradient id="glowB" cx="0" cy="0" r="1" gradientUnits="userSpaceOnUse" gradientTransform="translate(1548 268) rotate(180) scale(420 180)">
      <stop stop-color="#3E6FFF" stop-opacity="0.18"/>
      <stop offset="1" stop-color="#3E6FFF" stop-opacity="0"/>
    </radialGradient>
  </defs>

  <rect width="1920" height="360" rx="34" fill="url(#bg)"/>
  <rect x="0.5" y="0.5" width="1919" height="359" rx="33.5" stroke="#D8E5F7"/>

  <g opacity="0.14">
    <path d="M0 90H1920" stroke="#3E6FFF"/>
    <path d="M0 180H1920" stroke="#3E6FFF"/>
    <path d="M0 270H1920" stroke="#3E6FFF"/>
    <path d="M240 0V360" stroke="#3E6FFF"/>
    <path d="M480 0V360" stroke="#3E6FFF"/>
    <path d="M720 0V360" stroke="#3E6FFF"/>
    <path d="M960 0V360" stroke="#3E6FFF"/>
    <path d="M1200 0V360" stroke="#3E6FFF"/>
    <path d="M1440 0V360" stroke="#3E6FFF"/>
    <path d="M1680 0V360" stroke="#3E6FFF"/>
  </g>

  <ellipse cx="360" cy="104" rx="280" ry="120" fill="url(#glowA)"/>
  <ellipse cx="1548" cy="268" rx="280" ry="120" fill="url(#glowB)"/>

  <circle cx="184" cy="94" r="3" fill="#12BFA8"/>
  <circle cx="1682" cy="94" r="3" fill="#3E6FFF"/>
  <circle cx="1632" cy="276" r="2.8" fill="#FF8A4C"/>
  <circle cx="292" cy="286" r="2.4" fill="#3E6FFF"/>

  <text
    x="960"
    y="198"
    text-anchor="middle"
    fill="#10213F"
    font-size="58"
    font-family="Space Grotesk, Noto Sans SC, Arial"
    font-weight="700"
    lengthAdjust="spacingAndGlyphs"
    textLength="1500"
  >
    Hi there! Happy coding &amp; enjoy your day 😊
  </text>
</svg>
